# xmcd
#
# Track frame offsets:
#	150
#	27988
#	43419
#	58239
#	77153
#	98944
#	114737
#	141451
#	156036
#	176601
#
# Disc length: 2568
#
# Revision: 3
# Processed by: cddbd v1.5.1PL0 Copyright (c) Steve Scherf et al.
# Submitted via: CDex 1.50
# Normalized: r2:TRMNUM
#
DISCID=900a060a
DTITLE=Hank Riddle - Buffalo Songs
DYEAR=1900
DGENRE=Country
TTITLE0=buffalo songs - 01 buffalo songs
TTITLE1=High Chair Blues - 02 High Chair Blues
TTITLE2=Patsy Cline - 03 Patsy Cline
TTITLE3=Cracks In The Ceiling - 04 Cracks In The Ceiling
TTITLE4=Hes Still A Farmer - 05 Hes Still A Farmer
TTITLE5=Washed In The Blood - 06 Washed In The Blood
TTITLE6=Old Cowboy - 07 Old Cowboy
TTITLE7=Small Town Kind Of Day Dreaming - 08 Small Town Kind Of Day Dreaming
TTITLE8=Waitin For The 605 - 09 Waitin For The 605
TTITLE9=Until I Met You - 10 Until I Met You
EXTD=
EXTT0=
EXTT1=
EXTT2=
EXTT3=
EXTT4=
EXTT5=
EXTT6=
EXTT7=
EXTT8=
EXTT9=
PLAYORDER=
